<?xml version="1.0" encoding="utf-8"?>
<svg xmlns="http://www.w3.org/2000/svg" xmlns:xlink="http://www.w3.org/1999/xlink" style="margin: auto; background: none; display: block; shape-rendering: auto;" width="131px" height="131px" viewBox="0 0 100 100" preserveAspectRatio="xMidYMid">
<g transform="rotate(0 50 50)">
  <rect x="49" y="21" rx="1" ry="1.84" width="2" height="8" fill="#df1317">
    <animate attributeName="opacity" values="1;0" keyTimes="0;1" dur="2.4390243902439024s" begin="-2.217294900221729s" repeatCount="indefinite"></animate>
  </rect>
</g><g transform="rotate(32.72727272727273 50 50)">
  <rect x="49" y="21" rx="1" ry="1.84" width="2" height="8" fill="#e4934b">
    <animate attributeName="opacity" values="1;0" keyTimes="0;1" dur="2.4390243902439024s" begin="-1.9955654101995561s" repeatCount="indefinite"></animate>
  </rect>
</g><g transform="rotate(65.45454545454545 50 50)">
  <rect x="49" y="21" rx="1" ry="1.84" width="2" height="8" fill="#e2bb8b">
    <animate attributeName="opacity" values="1;0" keyTimes="0;1" dur="2.4390243902439024s" begin="-1.7738359201773832s" repeatCount="indefinite"></animate>
  </rect>
</g><g transform="rotate(98.18181818181819 50 50)">
  <rect x="49" y="21" rx="1" ry="1.84" width="2" height="8" fill="#e1e7e7">
    <animate attributeName="opacity" values="1;0" keyTimes="0;1" dur="2.4390243902439024s" begin="-1.5521064301552103s" repeatCount="indefinite"></animate>
  </rect>
</g><g transform="rotate(130.9090909090909 50 50)">
  <rect x="49" y="21" rx="1" ry="1.84" width="2" height="8" fill="#91bcc6">
    <animate attributeName="opacity" values="1;0" keyTimes="0;1" dur="2.4390243902439024s" begin="-1.3303769401330374s" repeatCount="indefinite"></animate>
  </rect>
</g><g transform="rotate(163.63636363636363 50 50)">
  <rect x="49" y="21" rx="1" ry="1.84" width="2" height="8" fill="#07abcc">
    <animate attributeName="opacity" values="1;0" keyTimes="0;1" dur="2.4390243902439024s" begin="-1.1086474501108645s" repeatCount="indefinite"></animate>
  </rect>
</g><g transform="rotate(196.36363636363637 50 50)">
  <rect x="49" y="21" rx="1" ry="1.84" width="2" height="8" fill="#0a69aa">
    <animate attributeName="opacity" values="1;0" keyTimes="0;1" dur="2.4390243902439024s" begin="-0.8869179600886916s" repeatCount="indefinite"></animate>
  </rect>
</g><g transform="rotate(229.0909090909091 50 50)">
  <rect x="49" y="21" rx="1" ry="1.84" width="2" height="8" fill="#194645">
    <animate attributeName="opacity" values="1;0" keyTimes="0;1" dur="2.4390243902439024s" begin="-0.6651884700665187s" repeatCount="indefinite"></animate>
  </rect>
</g><g transform="rotate(261.8181818181818 50 50)">
  <rect x="49" y="21" rx="1" ry="1.84" width="2" height="8" fill="#df1317">
    <animate attributeName="opacity" values="1;0" keyTimes="0;1" dur="2.4390243902439024s" begin="-0.4434589800443458s" repeatCount="indefinite"></animate>
  </rect>
</g><g transform="rotate(294.54545454545456 50 50)">
  <rect x="49" y="21" rx="1" ry="1.84" width="2" height="8" fill="#e4934b">
    <animate attributeName="opacity" values="1;0" keyTimes="0;1" dur="2.4390243902439024s" begin="-0.2217294900221729s" repeatCount="indefinite"></animate>
  </rect>
</g><g transform="rotate(327.27272727272725 50 50)">
  <rect x="49" y="21" rx="1" ry="1.84" width="2" height="8" fill="#e2bb8b">
    <animate attributeName="opacity" values="1;0" keyTimes="0;1" dur="2.4390243902439024s" begin="0s" repeatCount="indefinite"></animate>
  </rect>
</g>
<!-- [ldio] generated by https://loading.io/ --></svg>