<?xml version="1.0" encoding="utf-8"?>
<svg xmlns="http://www.w3.org/2000/svg" xmlns:xlink="http://www.w3.org/1999/xlink" style="margin: auto; background: none; display: block; shape-rendering: auto;" width="144px" height="144px" viewBox="0 0 100 100" preserveAspectRatio="xMidYMid">
<g transform="rotate(0 50 50)">
  <rect x="47.5" y="1" rx="2.5" ry="20" width="5" height="40" fill="#13dadf">
    <animate attributeName="opacity" values="1;0" keyTimes="0;1" dur="2.127659574468085s" begin="-2.015677491601344s" repeatCount="indefinite"></animate>
  </rect>
</g><g transform="rotate(18.94736842105263 50 50)">
  <rect x="47.5" y="1" rx="2.5" ry="20" width="5" height="40" fill="#13dadf">
    <animate attributeName="opacity" values="1;0" keyTimes="0;1" dur="2.127659574468085s" begin="-1.9036954087346025s" repeatCount="indefinite"></animate>
  </rect>
</g><g transform="rotate(37.89473684210526 50 50)">
  <rect x="47.5" y="1" rx="2.5" ry="20" width="5" height="40" fill="#13dadf">
    <animate attributeName="opacity" values="1;0" keyTimes="0;1" dur="2.127659574468085s" begin="-1.7917133258678613s" repeatCount="indefinite"></animate>
  </rect>
</g><g transform="rotate(56.8421052631579 50 50)">
  <rect x="47.5" y="1" rx="2.5" ry="20" width="5" height="40" fill="#13dadf">
    <animate attributeName="opacity" values="1;0" keyTimes="0;1" dur="2.127659574468085s" begin="-1.67973124300112s" repeatCount="indefinite"></animate>
  </rect>
</g><g transform="rotate(75.78947368421052 50 50)">
  <rect x="47.5" y="1" rx="2.5" ry="20" width="5" height="40" fill="#13dadf">
    <animate attributeName="opacity" values="1;0" keyTimes="0;1" dur="2.127659574468085s" begin="-1.5677491601343785s" repeatCount="indefinite"></animate>
  </rect>
</g><g transform="rotate(94.73684210526316 50 50)">
  <rect x="47.5" y="1" rx="2.5" ry="20" width="5" height="40" fill="#13dadf">
    <animate attributeName="opacity" values="1;0" keyTimes="0;1" dur="2.127659574468085s" begin="-1.4557670772676372s" repeatCount="indefinite"></animate>
  </rect>
</g><g transform="rotate(113.6842105263158 50 50)">
  <rect x="47.5" y="1" rx="2.5" ry="20" width="5" height="40" fill="#13dadf">
    <animate attributeName="opacity" values="1;0" keyTimes="0;1" dur="2.127659574468085s" begin="-1.343784994400896s" repeatCount="indefinite"></animate>
  </rect>
</g><g transform="rotate(132.6315789473684 50 50)">
  <rect x="47.5" y="1" rx="2.5" ry="20" width="5" height="40" fill="#13dadf">
    <animate attributeName="opacity" values="1;0" keyTimes="0;1" dur="2.127659574468085s" begin="-1.2318029115341547s" repeatCount="indefinite"></animate>
  </rect>
</g><g transform="rotate(151.57894736842104 50 50)">
  <rect x="47.5" y="1" rx="2.5" ry="20" width="5" height="40" fill="#13dadf">
    <animate attributeName="opacity" values="1;0" keyTimes="0;1" dur="2.127659574468085s" begin="-1.1198208286674132s" repeatCount="indefinite"></animate>
  </rect>
</g><g transform="rotate(170.52631578947367 50 50)">
  <rect x="47.5" y="1" rx="2.5" ry="20" width="5" height="40" fill="#13dadf">
    <animate attributeName="opacity" values="1;0" keyTimes="0;1" dur="2.127659574468085s" begin="-1.007838745800672s" repeatCount="indefinite"></animate>
  </rect>
</g><g transform="rotate(189.47368421052633 50 50)">
  <rect x="47.5" y="1" rx="2.5" ry="20" width="5" height="40" fill="#13dadf">
    <animate attributeName="opacity" values="1;0" keyTimes="0;1" dur="2.127659574468085s" begin="-0.8958566629339306s" repeatCount="indefinite"></animate>
  </rect>
</g><g transform="rotate(208.42105263157896 50 50)">
  <rect x="47.5" y="1" rx="2.5" ry="20" width="5" height="40" fill="#13dadf">
    <animate attributeName="opacity" values="1;0" keyTimes="0;1" dur="2.127659574468085s" begin="-0.7838745800671892s" repeatCount="indefinite"></animate>
  </rect>
</g><g transform="rotate(227.3684210526316 50 50)">
  <rect x="47.5" y="1" rx="2.5" ry="20" width="5" height="40" fill="#13dadf">
    <animate attributeName="opacity" values="1;0" keyTimes="0;1" dur="2.127659574468085s" begin="-0.671892497200448s" repeatCount="indefinite"></animate>
  </rect>
</g><g transform="rotate(246.31578947368422 50 50)">
  <rect x="47.5" y="1" rx="2.5" ry="20" width="5" height="40" fill="#13dadf">
    <animate attributeName="opacity" values="1;0" keyTimes="0;1" dur="2.127659574468085s" begin="-0.5599104143337066s" repeatCount="indefinite"></animate>
  </rect>
</g><g transform="rotate(265.2631578947368 50 50)">
  <rect x="47.5" y="1" rx="2.5" ry="20" width="5" height="40" fill="#13dadf">
    <animate attributeName="opacity" values="1;0" keyTimes="0;1" dur="2.127659574468085s" begin="-0.4479283314669653s" repeatCount="indefinite"></animate>
  </rect>
</g><g transform="rotate(284.2105263157895 50 50)">
  <rect x="47.5" y="1" rx="2.5" ry="20" width="5" height="40" fill="#13dadf">
    <animate attributeName="opacity" values="1;0" keyTimes="0;1" dur="2.127659574468085s" begin="-0.335946248600224s" repeatCount="indefinite"></animate>
  </rect>
</g><g transform="rotate(303.1578947368421 50 50)">
  <rect x="47.5" y="1" rx="2.5" ry="20" width="5" height="40" fill="#13dadf">
    <animate attributeName="opacity" values="1;0" keyTimes="0;1" dur="2.127659574468085s" begin="-0.22396416573348266s" repeatCount="indefinite"></animate>
  </rect>
</g><g transform="rotate(322.10526315789474 50 50)">
  <rect x="47.5" y="1" rx="2.5" ry="20" width="5" height="40" fill="#13dadf">
    <animate attributeName="opacity" values="1;0" keyTimes="0;1" dur="2.127659574468085s" begin="-0.11198208286674133s" repeatCount="indefinite"></animate>
  </rect>
</g><g transform="rotate(341.05263157894734 50 50)">
  <rect x="47.5" y="1" rx="2.5" ry="20" width="5" height="40" fill="#13dadf">
    <animate attributeName="opacity" values="1;0" keyTimes="0;1" dur="2.127659574468085s" begin="0s" repeatCount="indefinite"></animate>
  </rect>
</g>
<!-- [ldio] generated by https://loading.io/ --></svg>